<?xml version="1.0" encoding="UTF-8" standalone="no"?> <!-- Created with Vectornator for iOS (http://vectornator.io/) --><!DOCTYPE svg PUBLIC "-//W3C//DTD SVG 1.1//EN" "http://www.w3.org/Graphics/SVG/1.1/DTD/svg11.dtd">
<svg style="fill-rule:evenodd;clip-rule:evenodd;stroke-linecap:round;stroke-linejoin:round;" xmlns:vectornator="http://vectornator.io" xmlns:xlink="http://www.w3.org/1999/xlink" xmlns="http://www.w3.org/2000/svg" xml:space="preserve" version="1.1" viewBox="0 0 64 64">
<metadata>
<vectornator:setting key="DimensionsVisible" value="1"/>
<vectornator:setting key="SnapToGrid" value="0"/>
<vectornator:setting key="SnapToPoints" value="0"/>
<vectornator:setting key="GuidesVisible" value="1"/>
<vectornator:setting key="RulersVisible" value="1"/>
<vectornator:setting key="CMYKEnabledKey" value="0"/>
<vectornator:setting key="SnapToEdges" value="0"/>
<vectornator:setting key="DisplayWhiteBackground" value="0"/>
<vectornator:setting key="SnapToGuides" value="1"/>
<vectornator:setting key="GridSpacing" value="36"/>
<vectornator:setting key="Units" value="Pixels"/>
<vectornator:setting key="DynamicGuides" value="0"/>
<vectornator:setting key="New" value="1"/>
</metadata>
<defs/>
<g id="Слой 1" vectornator:layerName="Слой 1">
<path d="M17.5726+1.45577L46.347+1.45577C55.4453+1.45577+62.821+8.83146+62.821+17.93L62.821+46.7043C62.821+55.8027+55.4453+63.1784+46.347+63.1784L17.5726+63.1784C8.47422+63.1784+1.09845+55.8027+1.09845+46.7043L1.09845+17.93C1.09845+8.83146+8.47422+1.45577+17.5726+1.45577Z" fill-rule="evenodd" fill="#616161" opacity="1"/>
<path d="M4.69151+32.6598C4.69151+17.769+16.7629+5.6976+31.6537+5.6976C46.5445+5.6976+58.6158+17.769+58.6158+32.6598C58.6158+47.5506+46.5445+59.6219+31.6537+59.6219C16.7629+59.6219+4.69151+47.5506+4.69151+32.6598Z" fill-rule="evenodd" fill="#e1e0e0" opacity="0.479011"/>
<path d="M23.455+35.0367C21.6229+34.8307+18.7284+34.4709+15.1096+31.6255C11.4906+28.7801+11.103+26.0769+11.26+21.275C11.4574+15.24+15.7365+11.6197+16.7661+10.7066C17.7956+9.79345+20.3323+7.4837+25.5289+6.3335C30.7255+5.18333+33.3931+5.1762+38.4418+6.4674C43.4906+7.75859+52.8988+13.1768+50.0041+15.862C47.1094+18.5472+36.5972+12.8519+30.4604+13.3252C24.3237+13.7985+20.0735+17.3264+19.3818+20.9731C18.4482+26.9348+27.5639+28.2248+33.1533+28.0695C38.7427+27.9143+51.4852+30.845+53.0229+40.4123C54.5605+49.9797+48.4532+53.5666+46.7622+54.9936C45.0712+56.4207+40.1571+58.5109+36.9901+59.119C33.2193+59.8433+28.5099+59.8834+23.5158+58.3828C18.5218+56.8822+11.5928+52.5023+12.999+50.0828C14.4052+47.6634+20.7845+50.124+21.3655+50.2071C22.3794+50.3518+33.5894+52.9941+39.3157+48.0375C45.042+43.0808+42.8084+39.8269+40.5848+37.8232C38.8074+36.2216+37.3864+35.9937+34.4234+35.5972" fill-rule="evenodd" fill="#6e53b1" opacity="1"/>
<path d="M22.0761+19.4069L38.4818+19.3523C38.4818+19.3523+41.2305+19.6184+41.4993+22.7364C41.72+25.2959+41.6034+24.5967+41.5463+29.1608C41.5155+31.6279+38.6135+32.7141+38.6135+32.7141C38.6135+32.7141+40.8828+33.2048+41.631+35.7034C41.5538+42.2642+41.6061+42.7082+41.6061+42.7082C41.6061+42.7082+41.5498+46.4343+37.5509+46.8112C32.005+47.0128+24.2544+46.8823+24.2544+46.8823L24.5481+43.0389C24.5481+43.0389+25.1324+43.1057+36.5056+43.0257C37.8187+43.1099+38.4348+41.6731+38.4348+41.6731C38.4348+41.6731+38.604+40.545+38.463+36.2586C37.9669+34.5029+36.5796+34.5083+36.5796+34.5083L24.745+34.4458L24.8751+30.8767L36.4238+30.9825C36.4238+30.9825+38.3668+30.6707+38.3697+29.1495C38.3719+28.0231+38.3546+26.7782+38.3758+25.1659C38.4087+22.6547+36.17+23.0863+36.17+23.0863L25.2345+23.0674" fill-rule="evenodd" fill="#a15564" opacity="1"/>
<path d="M25.2496+19.4159L25.0132+46.8616L22.0127+46.8334L22.0384+19.4487L25.2496+19.4159Z" fill-rule="evenodd" fill="#a15564" opacity="1"/>
</g>
</svg>
